<svg xmlns:rdf="http://www.w3.org/1999/02/22-rdf-syntax-ns#" xmlns="http://www.w3.org/2000/svg" height="320" width="320" version="1.1" xmlns:cc="http://creativecommons.org/ns#" xmlns:dc="http://purl.org/dc/elements/1.1/" viewBox="0 0 320 320.00001">
    <path d="m191.5 20.58c-18.94-0.3657-39.18 6.293-50.18 18.67-5.992 6.746-8.736 16.13-8.839 25.73-46.45 21.18-99.88-44.22-125-12.24-24.5 31.15 38.73 81.41 129.7 34.07 1.208 2.578 2.57 5.041 4.216 7.233 12.04 16.03 46.42 5.132 59.37 20.55 31.53 37.55 28.6 124 24.93 166.8-10.04 12.43-15.43 25.89-15.87 39.54h111.7v-90.95c-16.37 3.61-31.81 8.605-45.74 14.9 1.78-32.57 3.633-82.71-0.7699-109.7-6.579-40.38-19.62-91.64-59.37-109.6-7.081-3.196-15.42-4.809-24.03-4.975zm0.7076 18.82a15.7 14.49 0 0 1 15.7 14.5 15.7 14.49 0 0 1 -15.7 14.48 15.7 14.49 0 0 1 -15.71 -14.48 15.7 14.49 0 0 1 15.71 -14.5zm72.96 83.77v9.415l-41.91 14.11v-9.418l41.91-14.11z"/>
</svg>
