<svg xmlns:rdf="http://www.w3.org/1999/02/22-rdf-syntax-ns#" xmlns="http://www.w3.org/2000/svg" height="320" width="320" version="1.1" xmlns:cc="http://creativecommons.org/ns#" xmlns:dc="http://purl.org/dc/elements/1.1/" viewBox="0 0 320 320.00001">
    <path d="m101 53.13c-10.09-0.1948-20.87 3.354-26.73 9.948-3.192 3.594-4.655 8.594-4.71 13.7-24.75 11.28-53.21-23.56-66.61-6.521-13.05 16.59 20.63 43.37 69.08 18.15 0.6435 1.373 1.37 2.687 2.247 3.855 6.413 8.541 24.73 2.733 31.63 10.95 16.8 20 15.24 66.08 13.28 88.85-5.557 6.877-8.448 14.35-8.478 21.91 0.00001 29.22 41.78 52.91 93.33 52.91 51.54-0.002 93.32-23.69 93.32-52.91-0.0197-4.503-1.051-8.986-3.073-13.34 17.94-12.79 20.03-29.75 25.53-45.82-11.48 10.16-19.36 21.99-41.41 27.27-17.62-13.22-45.14-21-74.36-21.02-21.14 0.00067-41.66 4.071-58.19 11.54 0.9482-17.35 1.936-44.06-0.4092-58.46-3.505-21.51-10.45-48.82-31.63-58.38-3.773-1.703-8.216-2.562-12.8-2.651zm0.3784 10.03a8.366 7.721 0 0 1 8.362 7.725 8.366 7.721 0 0 1 -8.362 7.718 8.366 7.721 0 0 1 -8.37 -7.718 8.366 7.721 0 0 1 8.37 -7.725zm38.87 44.63v5.017l-22.33 7.518v-5.017l22.33-7.518z"/>
</svg>
