<svg xmlns:rdf="http://www.w3.org/1999/02/22-rdf-syntax-ns#" xmlns="http://www.w3.org/2000/svg" height="320" width="320" version="1.1" xmlns:cc="http://creativecommons.org/ns#" xmlns:dc="http://purl.org/dc/elements/1.1/" viewBox="0 0 320 320.00001">
    <path d="m316 135.6c-25.6 21-49.3 12.7-73 4 0 0 49.9 43.9 42 70-6.9 23-87.8-16-111.4-20.5-11.7-3.1-25.7-5.7-40.7-7.4-0.1-1.5-0.1-3-0.2-4.6-0.2-10.4 1.4-22 5.7-26.7 4-4.3 13.1-5.1 19.5-3.1 2.9 0.9 6.2 2.7 8.7 4.9 2.4 2.2 3.9 4.7 4 7.1l5.5-0.1c-0.1-4.5-2.6-8.3-5.8-11.1-3.2-2.9-7.1-4.9-10.7-6.1-2.1-0.6-4.2-1.1-6.5-1.3-6.7-0.6-14 0.8-18.7 5.9-2.1 2.3-3.7 5.1-4.7 8.3-1.1-3.2-2.7-6.1-4.8-8.5-4.1-4.4-10.2-6.1-16.2-6-0.8 0-1.7 0.1-2.5 0.1-2.3 0.3-4.5 0.7-6.48 1.3-3.66 1.2-7.55 3.3-10.73 6.1-3.17 2.9-5.72 6.7-5.8 11.1l5.53 0.1c0.05-2.4 1.51-4.8 3.97-7.1 2.46-2.2 5.81-4 8.71-4.9 6.4-2 15.5-1.2 19.4 3.1 4.4 4.7 6 16.4 5.7 26.7 0 1.5-0.1 2.8-0.1 4.2-56.96-5.2-123.2 4.8-117.1 59.2 1.15 10 2.78 16.3 7.39 24 5.57 0.4 13.78 0.9 23.35 0.9 16.66 0.1 36.35-1.2 47.99-6.4 7.65-3.4 17.17-12.5 24.57-20.8 7.5-8.3 14.3-13.2 14.3-13.2l2.2 1.6s-5.5 7.5-13 15.9c-7.6 8.4-17.05 17.7-25.55 21.5-12.49 5.5-32.29 6.7-49.1 6.6-8.37 0-15.99-0.4-21.53-0.8 42.97 64.3 198.8 51.5 245.1 19 42.2-33.4 51-153 51-153zm-249.2 68c2.76 0 5 2.3 5 5 0 2.8-2.24 5-5 5-2.77 0-5-2.2-5-5 0-2.7 2.23-5 5-5z"/>
    <path d="m70.99 17.29c-6.001-0.1159-12.41 1.995-15.9 5.916-1.898 2.137-2.768 5.111-2.801 8.15-14.72 6.71-31.64-14.01-39.61-3.878-7.761 9.868 12.27 25.79 41.08 10.79 0.3827 0.8166 0.8146 1.598 1.336 2.293 3.814 5.079 14.71 1.625 18.81 6.509 9.99 11.9 9.061 39.3 7.898 52.84-3.305 4.09-5.024 8.533-5.042 13.03 0.000003 17.38 24.85 31.46 55.5 31.46 30.65-0.001 55.5-14.09 55.5-31.46-0.0117-2.678-0.6253-5.344-1.828-7.933 10.67-7.604 11.91-17.69 15.18-27.25-6.827 6.043-11.51 13.08-24.63 16.22-10.48-7.861-26.84-12.49-44.22-12.5-12.57 0.0004-24.77 2.421-34.6 6.865 0.5639-10.32 1.151-26.2-0.2434-34.76-2.084-12.79-6.215-29.03-18.81-34.72-2.243-1.013-4.886-1.524-7.613-1.577zm0.225 5.963a4.975 4.592 0 0 1 4.973 4.594 4.975 4.592 0 0 1 -4.973 4.59 4.975 4.592 0 0 1 -4.977 -4.59 4.975 4.592 0 0 1 4.977 -4.594zm23.11 26.54v2.984l-13.28 4.471v-2.984l13.28-4.471z"/>
</svg>
